<?xml version="1.0" encoding="UTF-8" standalone="no" ?>
<!DOCTYPE svg PUBLIC "-//W3C//DTD SVG 1.1//EN" "http://www.w3.org/Graphics/SVG/1.1/DTD/svg11.dtd">
<svg xmlns="http://www.w3.org/2000/svg" xmlns:xlink="http://www.w3.org/1999/xlink" version="1.1" width="1000" height="1000" viewBox="0 0 500 500" xml:space="preserve">
<desc>Created with Fabric.js 5.3.0</desc>
<defs>
</defs>
<g transform="matrix(3.1388205439 0 0 3.1388205439 250 250)" id="AWlqSRa2GkJm_2zuEGp7_"  >
<path style="stroke: rgb(0,0,0); stroke-width: 0.216; stroke-dasharray: none; stroke-linecap: butt; stroke-dashoffset: 0; stroke-linejoin: miter; stroke-miterlimit: 2.6131; fill: rgb(255,255,255); fill-rule: evenodd; opacity: 1;"  transform=" translate(-51.3879142644, -61.5481966298)" d="M 53.79 29.73 C 55.33 29.73 56.57 30.98 56.57 32.51 C 56.57 34.03999999999999 55.32 35.29 53.79 35.29 C 52.26 35.29 51 34.05 51 32.52 C 51 30.99000000000001 52.25 29.73 53.79 29.73 L 53.79 29.73 z M 58.1 118.65 L 58.160000000000004 118.65 L 58.470000000000006 118.65 C 58.95 118.64 59.040000000000006 118.59 59.410000000000004 118.35000000000001 L 59.77 118.12 C 64.54 115.11 66.81 110.66000000000001 67.34 105.2 C 67.9 99.4 66.54 92.43 64.08 84.80000000000001 L 64.08 84.80000000000001 C 64.07 84.77000000000001 64.06 84.74000000000001 64.05 84.71000000000001 L 57.9 62.32 C 57.3 62.58 56.71 62.83 56.11 63.07 C 53.76 64.05 51.34 64.78 48.87 65.29 C 46.209999999999994 65.86 43.54 66.17 40.86 66.22000000000001 C 35.14 66.31000000000002 29.42 65.18 23.689999999999998 62.820000000000014 L 20.04 77.18 C 19.34 79.92 18.759999999999998 82.35000000000001 18.279999999999998 84.54 C 17.769999999999996 86.86 17.31 89.12 16.889999999999997 91.42 C 16.679999999999996 92.55 16.56 93.17 16.439999999999998 93.8 C 15.109999999999998 100.64999999999999 13.699999999999998 107.95 17.529999999999998 113.69999999999999 C 18.619999999999997 115.33999999999999 20.029999999999998 116.54999999999998 21.729999999999997 117.35999999999999 C 23.469999999999995 118.17999999999998 25.529999999999998 118.60999999999999 27.889999999999997 118.66999999999999 C 27.939999999999998 118.66999999999999 27.979999999999997 118.66999999999999 28.029999999999998 118.66999999999999 L 30.819999999999997 118.66999999999999 L 30.819999999999997 95.37 C 30.819999999999997 94.19 31.779999999999998 93.23 32.959999999999994 93.23 C 34.13999999999999 93.23 35.099999999999994 94.19 35.099999999999994 95.37 L 35.099999999999994 118.65 L 46.589999999999996 118.65 L 46.589999999999996 95.37 C 46.589999999999996 94.19 47.55 93.23 48.73 93.23 C 49.91 93.23 50.87 94.19 50.87 95.37 L 50.87 118.65 L 58.1 118.65 L 58.1 118.65 z M 14.21 1.45 L 22.3 9.15 C 28.3 6.73 34.35 5.43 40.45 5.370000000000001 C 46.57 5.320000000000001 52.71 6.530000000000001 58.88 9.14 L 67.93 0.6799999999999997 C 68.79 -0.12000000000000033 70.13000000000001 -0.0800000000000003 70.93 0.7799999999999997 C 71.31 1.1899999999999997 71.5 1.7099999999999997 71.5 2.2199999999999998 L 71.5 2.2199999999999998 L 71.61 20.279999999999998 C 74.07 24.58 75.53 28.589999999999996 76.14 32.349999999999994 L 79.77 31.169999999999995 C 80.89 30.809999999999995 82.08999999999999 31.419999999999995 82.46 32.53999999999999 C 82.82 33.65999999999999 82.21 34.85999999999999 81.08999999999999 35.22999999999999 L 76.47999999999999 36.72999999999999 C 76.47999999999999 36.82999999999999 76.47999999999999 36.92999999999999 76.46999999999998 37.01999999999999 C 76.38999999999999 40.20999999999999 75.66999999999999 43.17999999999999 74.42999999999998 45.969999999999985 L 77.34999999999998 46.359999999999985 C 78.51999999999998 46.509999999999984 79.33999999999997 47.579999999999984 79.18999999999998 48.749999999999986 C 79.03999999999998 49.91999999999999 77.96999999999998 50.73999999999999 76.79999999999998 50.58999999999999 L 72.20999999999998 49.97999999999999 C 71.91999999999997 50.41999999999999 71.60999999999999 50.84999999999999 71.28999999999998 51.27999999999999 C 68.55999999999997 54.94999999999999 65.29999999999998 57.899999999999984 61.71999999999998 60.16999999999999 L 68.13999999999997 83.49999999999999 L 68.13999999999997 83.49999999999999 C 70.75999999999998 91.63999999999999 72.19999999999997 99.15999999999998 71.57999999999997 105.6 C 71.08999999999997 110.72999999999999 69.32999999999997 115.16 65.88999999999997 118.64999999999999 L 76.34999999999997 118.64999999999999 L 76.45999999999997 118.64999999999999 L 76.45999999999997 118.66 C 83.43999999999997 118.66 88.85999999999997 118.66 94.15999999999997 113.52 C 97.23999999999997 110.53999999999999 98.52999999999997 106.72 98.41999999999997 102.92 C 98.35999999999997 100.84 97.86999999999998 98.75 97.02999999999997 96.79 C 96.17999999999998 94.82000000000001 94.97999999999998 93 93.48999999999997 91.46000000000001 C 90.56999999999996 88.45 86.51999999999997 86.49000000000001 81.80999999999997 86.63000000000001 C 80.63999999999997 86.66000000000001 79.65999999999997 85.74000000000001 79.61999999999998 84.56000000000002 C 79.58999999999997 83.39000000000001 80.50999999999998 82.41000000000001 81.68999999999997 82.37000000000002 C 87.68999999999997 82.19000000000001 92.83999999999997 84.66000000000003 96.53999999999996 88.48000000000002 C 98.40999999999997 90.41000000000003 99.89999999999996 92.67000000000002 100.93999999999997 95.10000000000002 C 101.97999999999998 97.53000000000003 102.58999999999997 100.16000000000003 102.65999999999997 102.80000000000003 C 102.80999999999997 107.73000000000002 101.12999999999997 112.68000000000002 97.11999999999996 116.57000000000002 C 90.56999999999996 122.91000000000003 84.40999999999997 122.91000000000003 76.44999999999996 122.91000000000003 L 76.44999999999996 122.92000000000003 L 76.33999999999996 122.92000000000003 L 58.56 122.92000000000003 L 58.36 122.92000000000003 L 49.24 122.92000000000003 C 49.07 122.96000000000004 48.89 122.99000000000002 48.71 122.99000000000002 C 48.53 122.99000000000002 48.35 122.97000000000003 48.18 122.92000000000003 L 33.480000000000004 122.92000000000003 C 33.31 122.96000000000004 33.13 122.99000000000002 32.95 122.99000000000002 C 32.77 122.99000000000002 32.59 122.97000000000003 32.42 122.92000000000003 L 28.020000000000003 122.92000000000003 C 27.940000000000005 122.92000000000003 27.870000000000005 122.92000000000003 27.790000000000003 122.91000000000003 C 24.820000000000004 122.84000000000003 22.180000000000003 122.28000000000003 19.900000000000002 121.20000000000003 C 17.490000000000002 120.06000000000003 15.500000000000002 118.35000000000004 13.96 116.04000000000003 C 9.170000000000002 108.84000000000003 10.75 100.67000000000003 12.24 92.99000000000004 C 12.43 92.03000000000004 12.61 91.08000000000004 12.69 90.65000000000003 C 13.11 88.35000000000004 13.58 86.04000000000003 14.12 83.62000000000003 C 14.68 81.08000000000003 15.27 78.61000000000003 15.899999999999999 76.13000000000004 L 19.81 60.76000000000004 C 15.489999999999998 58.23000000000004 11.829999999999998 54.85000000000004 9.28 50.74000000000004 C 9.14 50.51 9 50.28 8.87 50.06 L 5.419999999999999 50.49 C 4.249999999999999 50.63 3.189999999999999 49.800000000000004 3.039999999999999 48.63 C 2.899999999999999 47.46 3.729999999999999 46.400000000000006 4.8999999999999995 46.25 L 6.949999999999999 46 C 5.869999999999999 43.08 5.31 39.89 5.359999999999999 36.47 L 1.5799999999999996 35.24 C 0.4599999999999995 34.88 -0.15000000000000036 33.67 0.20999999999999952 32.550000000000004 C 0.5699999999999995 31.430000000000003 1.7799999999999996 30.820000000000004 2.8999999999999995 31.180000000000003 L 5.75 32.11000000000001 C 6.35 28.400000000000006 7.65 24.460000000000008 9.77 20.310000000000006 L 10.61 2.9000000000000057 C 10.67 1.7300000000000058 11.66 0.8200000000000056 12.84 0.8700000000000059 C 13.38 0.89 13.85 1.11 14.21 1.45 L 14.21 1.45 L 14.21 1.45 z M 20.37 13.2 L 14.64 7.749999999999999 L 14 20.96 L 14 20.96 C 13.99 21.26 13.91 21.560000000000002 13.76 21.84 C 11.6 25.97 10.35 29.85 9.87 33.44 L 23.25 37.78 C 24.37 38.14 24.98 39.35 24.62 40.47 C 24.26 41.589999999999996 23.05 42.199999999999996 21.93 41.839999999999996 L 9.66 37.85 C 9.77 40.59 10.36 43.13 11.33 45.44 L 22.34 44.07 C 23.509999999999998 43.93 24.57 44.76 24.72 45.93 C 24.86 47.1 24.029999999999998 48.17 22.86 48.31 L 13.559999999999999 49.47 C 15.79 52.67 18.869999999999997 55.32 22.45 57.339999999999996 C 26.46 59.599999999999994 31.1 61.059999999999995 35.95 61.62 C 40.24 62.12 44.67 61.9 48.940000000000005 60.91 C 50.580000000000005 60.51 52.220000000000006 60 53.86000000000001 59.379999999999995 C 59.010000000000005 57.349999999999994 63.720000000000006 54.05 67.41000000000001 49.31999999999999 L 59.79000000000001 48.29999999999999 C 58.62000000000001 48.14999999999999 57.80000000000001 47.07999999999999 57.95000000000001 45.90999999999999 C 58.10000000000001 44.73999999999999 59.17000000000001 43.91999999999999 60.34000000000001 44.069999999999986 L 69.98000000000002 45.359999999999985 C 71.16000000000003 43.079999999999984 71.91000000000003 40.679999999999986 72.14000000000001 38.11999999999998 L 60.72000000000001 41.819999999999986 C 59.600000000000016 42.179999999999986 58.40000000000001 41.569999999999986 58.030000000000015 40.44999999999999 C 57.670000000000016 39.32999999999999 58.280000000000015 38.12999999999999 59.40000000000001 37.75999999999999 L 72.03000000000002 33.65999999999999 C 71.56000000000002 30.08999999999999 70.15000000000002 26.18999999999999 67.65000000000002 21.90999999999999 L 67.65000000000002 21.90999999999999 C 67.47000000000001 21.59999999999999 67.36000000000001 21.22999999999999 67.36000000000001 20.83999999999999 L 67.28 7.11 L 60.85 13.129999999999999 C 60.24 13.77 59.27 13.979999999999999 58.42 13.6 C 52.400000000000006 10.86 46.42 9.59 40.480000000000004 9.64 C 34.540000000000006 9.690000000000001 28.610000000000007 11.07 22.680000000000003 13.620000000000001 L 22.680000000000003 13.620000000000001 C 21.92 13.94 21.01 13.8 20.37 13.2 L 20.37 13.2 z M 37.54 39.46 C 36.36 39.46 35.4 38.5 35.4 37.32 C 35.4 36.14 36.36 35.18 37.54 35.18 L 44.15 35.18 C 45.33 35.18 46.29 36.14 46.29 37.32 C 46.29 38.5 45.33 39.46 44.15 39.46 L 42.949999999999996 39.46 C 43.029999999999994 40.71 43.24999999999999 41.81 43.58 42.74 C 44.07 44.14 44.809999999999995 45.160000000000004 45.699999999999996 45.81 C 46.56999999999999 46.45 47.60999999999999 46.78 48.73 46.800000000000004 C 49.589999999999996 46.82000000000001 50.5 46.660000000000004 51.44 46.330000000000005 C 52.55 45.940000000000005 53.769999999999996 46.52 54.16 47.63 C 54.55 48.74 53.97 49.96 52.86 50.35 C 51.45 50.85 50.03 51.09 48.64 51.06 C 46.64 51.02 44.77 50.43 43.18 49.25 C 42.39 48.66 41.67 47.94 41.05 47.08 C 40.5 47.97 39.849999999999994 48.67 39.099999999999994 49.23 C 36.60999999999999 51.08 33.449999999999996 51.089999999999996 30.029999999999994 50.61 C 28.859999999999992 50.45 28.049999999999994 49.37 28.209999999999994 48.21 C 28.369999999999994 47.04 29.449999999999992 46.230000000000004 30.609999999999992 46.39 C 33.04999999999999 46.730000000000004 35.21999999999999 46.8 36.53999999999999 45.81 C 37.739999999999995 44.910000000000004 38.51999999999999 43.010000000000005 38.629999999999995 39.46 L 37.54 39.46 L 37.54 39.46 z M 28.12 29.73 C 29.66 29.73 30.900000000000002 30.98 30.900000000000002 32.51 C 30.900000000000002 34.03999999999999 29.650000000000002 35.29 28.12 35.29 C 26.580000000000002 35.29 25.34 34.04 25.34 32.51 C 25.34 30.979999999999997 26.58 29.73 28.12 29.73 L 28.12 29.73 z" stroke-linecap="round" />
</g>
</svg>